<svg width="15" height="20" viewBox="0 0 15 20" fill="none" xmlns="http://www.w3.org/2000/svg">
<path d="M14.1561 10.625H13.7273V3.21312C13.7265 2.36131 13.3878 1.54462 12.7855 0.942237C12.1833 0.339856 11.3667 0.000992772 10.5148 0C8.98921 0 7.71421 1.07125 7.38859 2.5H6.23171C5.89903 2.5 5.57998 2.63216 5.34474 2.8674C5.10949 3.10264 4.97734 3.42169 4.97734 3.75437C4.97734 4.09687 5.25609 4.375 5.59859 4.375H9.98171C10.1463 4.37483 10.304 4.30939 10.4204 4.19304C10.5367 4.07669 10.6022 3.91892 10.6023 3.75437C10.6024 3.58968 10.5701 3.42658 10.5071 3.27439C10.4441 3.12221 10.3518 2.98392 10.2353 2.86744C10.1189 2.75095 9.98067 2.65854 9.82852 2.5955C9.67637 2.53245 9.51328 2.5 9.34859 2.5H8.69109C8.97734 1.77 9.68484 1.25 10.5148 1.25C11.0352 1.25066 11.5341 1.45772 11.902 1.82575C12.2699 2.19379 12.4768 2.69273 12.4773 3.21312V10.625H0.799213C0.585244 10.6309 0.382019 10.72 0.232764 10.8735C0.0835083 11.0269 0 11.2325 0 11.4466C0 11.6606 0.0835083 11.8662 0.232764 12.0196C0.382019 12.1731 0.585244 12.2622 0.799213 12.2681H1.22734V13.6606C1.22798 14.4951 1.46257 15.3126 1.90448 16.0205C2.34639 16.7283 2.97791 17.298 3.72734 17.665V18.75C3.72734 19.0815 3.85903 19.3995 4.09345 19.6339C4.32787 19.8683 4.64582 20 4.97734 20C5.30886 20 5.6268 19.8683 5.86122 19.6339C6.09564 19.3995 6.22734 19.0815 6.22734 18.75V18.125H9.26359C9.29359 18.125 9.32296 18.1212 9.35234 18.1206V18.75C9.35234 19.0815 9.48403 19.3995 9.71845 19.6339C9.95287 19.8683 10.2708 20 10.6023 20C10.9339 20 11.2518 19.8683 11.4862 19.6339C11.7206 19.3995 11.8523 19.0815 11.8523 18.75V17.2931C12.432 16.8812 12.9047 16.3365 13.2309 15.7046C13.5571 15.0726 13.7273 14.3718 13.7273 13.6606V12.2681H14.1561C14.374 12.2681 14.5829 12.1816 14.737 12.0275C14.8911 11.8734 14.9777 11.6645 14.9777 11.4466C14.9777 11.2287 14.8911 11.0197 14.737 10.8656C14.5829 10.7116 14.374 10.625 14.1561 10.625Z" fill="black"/>
</svg>
