<svg width="20" height="20" viewBox="0 0 20 20" fill="none" xmlns="http://www.w3.org/2000/svg">
<path d="M10 11.8933L19.88 15.84L19.96 15.8667H20L10 19.8667L0 15.8667H0.0666667L0.12 15.84L10 11.8933ZM10 13.3067L3.58667 15.8667L10 18.4267L16.4133 15.8667L10 13.3067ZM9.66667 0V11.2L9.68 11.28V11.3067L6.66667 12.5067V7.21333C6.66671 6.97618 6.60764 6.74275 6.49478 6.53416C6.38193 6.32558 6.21885 6.14842 6.02031 6.0187C5.82177 5.88899 5.59403 5.81082 5.35768 5.79126C5.12133 5.77169 4.88383 5.81136 4.66667 5.90667C3.53333 6.4 2.76 7.49333 2.68 8.72L2.66667 8.96V14.1067L0 15.1733V3.86667L9.66667 0ZM10.3333 0L20 3.86667V15.1733L10.32 11.3067L10.3333 11.2533V0ZM13 5.2V9.2L17 10.8667V6.86667L13 5.2ZM5.33333 8.86667C5.70667 8.86667 6 9.16 6 9.53333C6 9.90667 5.70667 10.2 5.33333 10.2C4.96 10.2 4.66667 9.90667 4.66667 9.53333C4.66667 9.16 4.96 8.86667 5.33333 8.86667Z" fill="black"/>
</svg>
